<svg width="70" height="65" class="text-red-500" viewBox="0 0 512 512" fill="none" xmlns="http://www.w3.org/2000/svg">
    <g clip-path="url(#clip0_0_3)">
        <path d="M48.2491 308.581C47.0854 308.581 46.0879 309.135 45.2567 310.243C44.4809 311.296 44.093 314.206 44.093 318.971C44.093 323.737 44.4809 326.674 45.2567 327.782C46.0879 328.835 47.0854 329.362 48.2491 329.362C49.4129 329.362 50.3826 328.835 51.1584 327.782C51.9897 326.674 52.4053 323.737 52.4053 318.971C52.4053 314.206 51.9897 311.296 51.1584 310.243C50.3826 309.135 49.4129 308.581 48.2491 308.581ZM168.777 246.239C168.777 242.36 164.621 238.204 156.309 233.77V225.458C156.309 217.146 160.465 212.99 168.777 212.99H181.246V221.302H168.777C166.006 221.302 164.621 222.687 164.621 225.458V229.614C172.933 234.048 177.09 239.589 177.09 246.239V296.113C177.09 323.82 164.621 337.674 139.684 337.674C114.747 337.674 102.279 323.82 102.279 296.113V279.488C102.279 257.322 92.5813 246.239 73.186 246.239C53.7907 246.239 44.093 257.322 44.093 279.488V301.1C45.3675 300.546 46.7529 300.269 48.2491 300.269C51.7403 300.269 54.6773 301.765 57.0602 304.757C59.4984 307.694 60.7176 312.432 60.7176 318.971C60.7176 325.51 59.4984 330.276 57.0602 333.269C54.6773 336.206 51.7403 337.674 48.2491 337.674C44.758 337.674 41.7933 336.206 39.355 333.269C36.9721 330.276 35.7807 325.51 35.7807 318.971V279.488C35.7807 260.758 40.8512 248.345 50.9922 242.249C49.1635 239.534 45.4784 236.707 39.9369 233.77V225.458C39.9369 217.146 44.093 212.99 52.4053 212.99H98.1228V221.302H52.4053C49.6345 221.302 48.2491 222.687 48.2491 225.458V229.614C53.3473 232.33 56.8939 235.488 58.8889 239.09C61.9367 238.315 66.7024 237.927 73.186 237.927C98.1228 237.927 110.591 251.78 110.591 279.488V296.113C110.591 318.279 120.289 329.362 139.684 329.362C159.08 329.362 168.777 318.279 168.777 296.113V246.239ZM177.09 345.986V391.704H168.777V345.986H177.09ZM289.305 254.551C288.142 254.551 287.144 255.105 286.313 256.214C285.537 257.267 285.149 258.79 285.149 260.785C285.149 262.78 285.537 264.332 286.313 265.44C287.144 266.493 288.142 267.02 289.305 267.02C290.469 267.02 291.439 266.493 292.215 265.44C293.046 264.332 293.461 262.78 293.461 260.785C293.461 258.79 293.046 257.267 292.215 256.214C291.439 255.105 290.469 254.551 289.305 254.551ZM293.461 329.362V274.75C292.187 275.138 290.802 275.332 289.305 275.332C285.26 275.332 282.157 274.002 279.996 271.342C277.89 268.627 276.837 265.108 276.837 260.785C276.837 256.463 277.89 252.972 279.996 250.312C282.157 247.597 285.26 246.239 289.305 246.239C293.351 246.239 296.426 247.597 298.532 250.312C300.693 252.972 301.774 256.463 301.774 260.785V337.674H289.305L260.212 312.737L231.119 337.674H218.651V246.239C218.651 242.36 217.266 238.204 214.495 233.77V229.614C214.495 218.531 220.036 212.99 231.119 212.99H256.056L275.174 225.458H287.643C291.522 225.458 293.461 223.519 293.461 219.64V200.521H301.774V219.64C301.774 229.06 297.063 233.77 287.643 233.77H272.681L253.563 221.302H231.119C225.578 221.302 222.807 224.073 222.807 229.614V230.446C225.578 234.879 226.963 240.143 226.963 246.239V329.362L260.212 300.269L293.461 329.362ZM301.774 212.99H318.398C340.564 212.99 351.647 224.073 351.647 246.239V337.674H343.335V246.239C343.335 229.614 335.023 221.302 318.398 221.302H301.774V212.99ZM405.677 308.581C404.514 308.581 403.516 309.135 402.685 310.243C401.909 311.296 401.521 314.206 401.521 318.971C401.521 323.737 401.909 326.674 402.685 327.782C403.516 328.835 404.514 329.362 405.677 329.362C406.841 329.362 407.811 328.835 408.587 327.782C409.418 326.674 409.833 323.737 409.833 318.971C409.833 314.206 409.418 311.296 408.587 310.243C407.811 309.135 406.841 308.581 405.677 308.581ZM476.332 212.99V221.302H393.209V212.99H476.332ZM393.209 279.488C393.209 251.78 407.063 237.927 434.77 237.927C462.478 237.927 476.332 251.78 476.332 279.488V337.674H468.019V279.488C468.019 257.322 456.936 246.239 434.77 246.239C412.604 246.239 401.521 257.322 401.521 279.488V301.1C402.796 300.546 404.181 300.269 405.677 300.269C409.168 300.269 412.105 301.765 414.488 304.757C416.927 307.694 418.146 312.432 418.146 318.971C418.146 325.51 416.927 330.276 414.488 333.269C412.105 336.206 409.168 337.674 405.677 337.674C402.186 337.674 399.249 336.178 396.866 333.185C394.982 330.913 393.818 327.561 393.375 323.128H393.209V279.488Z" fill="#071F43"/>
        <path d="M52.4053 171.786C54.1231 171.786 55.2315 171.426 55.7302 170.705C56.2843 169.93 56.5614 168.738 56.5614 167.131C56.5614 165.469 56.2843 164.277 55.7302 163.557C55.2315 162.836 54.1231 162.421 52.4053 162.31V171.786ZM35.7807 102.877C35.7807 75.1696 49.8562 61.3157 78.0071 61.3157C106.103 61.3157 120.15 75.1696 120.15 102.877V144.439C120.15 161.063 127.77 169.375 143.009 169.375C156.309 169.375 162.959 161.063 162.959 144.439V94.5649C162.959 90.0208 160.188 85.5322 154.646 81.099V73.7842C154.646 65.4719 159.911 61.3157 170.44 61.3157H187.895V77.9403H173.765V78.9378C180.414 83.371 183.739 88.58 183.739 94.5649V144.439C183.739 172.146 170.163 186 143.009 186C113.916 186 99.3697 172.146 99.3697 144.439V102.877C99.3697 86.2526 92.2488 77.9403 78.0071 77.9403C63.71 77.9403 56.5614 86.2526 56.5614 102.877V148.096C60.773 148.428 63.9039 150.091 65.9543 153.083C68.0047 156.02 69.0298 160.758 69.0298 167.297C69.0298 172.728 67.589 177.217 64.7075 180.763C61.8259 184.254 57.7251 186 52.4053 186C47.0854 186 42.9847 184.393 40.1031 181.179C37.2215 177.909 35.7807 173.282 35.7807 167.297V102.877ZM183.739 61.3157H203.689C231.951 61.3157 246.081 72.3988 246.081 94.5649V186H225.301V94.5649C225.301 83.4818 218.097 77.9403 203.689 77.9403H183.739V61.3157ZM304.267 171.786C305.985 171.786 307.094 171.426 307.592 170.705C308.147 169.93 308.424 168.738 308.424 167.131C308.424 165.469 308.147 164.277 307.592 163.557C307.094 162.836 305.985 162.421 304.267 162.31V171.786ZM377.416 61.3157V77.9403H287.643V61.3157H377.416ZM287.643 127.814C287.643 100.106 302.605 86.2526 332.529 86.2526C362.453 86.2526 377.416 100.106 377.416 127.814V186H356.635V127.814C356.635 111.189 348.6 102.877 332.529 102.877C316.459 102.877 308.424 111.189 308.424 127.814V148.096C312.635 148.428 315.766 150.091 317.816 153.083C319.867 156.02 320.892 160.758 320.892 167.297C320.892 172.728 319.451 177.217 316.57 180.763C313.688 184.254 309.587 186 304.267 186C298.948 186 294.847 184.393 291.965 181.179C289.084 177.909 287.643 173.282 287.643 167.297V127.814Z" fill="#071F43"/>
    </g>
</svg>


